:SAMPLES-PER-SECOND 30
:FULLY-SPECIFIED
:DEGREES
346
root  18.7845 36.124 -12.3885 -163.556 -86.4462 156.663
RightUpLeg  -10.0079 -5.59944 1.53612
RightLeg  50.4687 -13.0867 -16.7267
RightFoot  -26.8885 1.046 8.9912
RightToes  1.16414e-010 0 -3.6325e-017
Spine  31.0321 -1.38227 -3.32369
Spine1  -0.787639 -1.21667 -6.6307
HEad  -36.0769 18.7801 -1.63987
LeftShoulder1  0.0685971 2.65031 0.472301
LeftArm  -56.7449 -10.259 -8.10562
LeftForeArm  -95.0047 -11.3362 6.98109
LeftHand  0.242286 -0.559825 -4.71191
RightShoulder  2.24894 4.6554 21.2809
RightArm  41.8207 -22.6102 57.5089
RightForeArm  39.4432 10.815 14.5343
RightHand  -0.172262 -12.6683 1.57538
LeftUpLeg  -37.3082 9.93265 17.5662
LeftLeg  57.6722 8.10946 14.0599
LeftFoot  6.47784 0.754474 -5.04747
LeftToes  7.09373e-011 9.9627e-011 8.96859e-012
347
root  18.3519 36.576 -10.6613 -163.718 -86.1836 157.215
RightUpLeg  -8.77483 -4.87575 -1.78275
RightLeg  47.7749 -13.5767 -15.8072
RightFoot  -24.4525 1.01577 10.26
RightToes  1.16414e-010 0 -3.6325e-017
Spine  28.6244 -2.04412 -1.73113
Spine1  -1.31369 -1.51378 -5.55454
HEad  -32.9319 18.814 -1.45979
LeftShoulder1  0.0542413 2.89577 -0.52971
LeftArm  -56.4004 -7.92724 -9.89051
LeftForeArm  -94.838 -12.1855 6.54315
LeftHand  0.238915 0.242284 -5.45761
RightShoulder  2.17473 4.46589 20.9868
RightArm  38.1561 -23.6563 56.9017
RightForeArm  39.3551 10.9644 14.2721
RightHand  -0.128222 -12.5825 0.915923
LeftUpLeg  -32.3588 3.73343 22.3482
LeftLeg  53.3011 8.06093 11.8855
LeftFoot  8.22217 0.767627 -4.74261
LeftToes  7.09373e-011 9.9627e-011 8.96859e-012
348
root  17.8663 36.9171 -8.91058 -167.555 -85.4491 161.874
RightUpLeg  -7.76721 -3.63399 -4.84139
RightLeg  44.5893 -13.351 -14.0008
RightFoot  -22.9505 1.05349 11.8599
RightToes  1.16414e-010 0 -3.6325e-017
Spine  25.7225 -2.24111 -0.0883733
Spine1  -1.63622 -1.32334 -4.80283
HEad  -29.5384 18.5198 -1.4741
LeftShoulder1  0.0406667 3.08462 -1.39237
LeftArm  -55.7725 -5.87521 -11.7339
LeftForeArm  -94.4795 -12.7038 6.16317
LeftHand  0.217179 0.637097 -5.45045
RightShoulder  2.08533 4.24725 20.5769
RightArm  34.4782 -24.6535 56.0805
RightForeArm  38.3245 11.1379 14.0078
RightHand  -0.0765344 -12.0834 0.165208
LeftUpLeg  -27.8255 -1.09763 25.5818
LeftLeg  48.6844 7.23698 9.16811
LeftFoot  9.15052 0.575857 -3.49519
LeftToes  7.09373e-011 9.9627e-011 8.96859e-012
349
root  17.3666 37.1968 -7.17644 -172.646 -84.1556 167.873
RightUpLeg  -6.82842 -2.06453 -7.63428
RightLeg  40.8823 -12.7055 -11.8038
RightFoot  -21.1244 0.985062 13.1346
RightToes  1.16414e-010 0 -3.6325e-017
Spine  22.7881 -1.89632 1.26509
Spine1  -1.82713 -0.730143 -4.11363
HEad  -25.8456 18.0836 -1.74826
LeftShoulder1  0.0452586 3.07241 -2.25595
LeftArm  -55.3126 -3.60063 -13.5397
LeftForeArm  -93.3128 -13.3144 5.71003
LeftHand  0.215681 0.310522 -5.02007
RightShoulder  1.99621 3.96865 20.3764
RightArm  31.9666 -25.4344 54.4514
RightForeArm  36.3872 11.7807 13.4866
RightHand  -0.0364534 -10.6528 -0.45923
LeftUpLeg  -22.6815 -4.53495 27.381
LeftLeg  43.2436 4.49053 4.94797
LeftFoot  9.36011 0.226259 -1.53556
LeftToes  7.09373e-011 9.9627e-011 8.96859e-012
350
root  16.8346 37.408 -5.37866 -176.742 -82.8257 172.791
RightUpLeg  -5.8761 -1.49757 -10.6066
RightLeg  36.8556 -12.1202 -9.84725
RightFoot  -18.2914 0.722392 13.8803
RightToes  1.16414e-010 0 -3.6325e-017
Spine  20.1082 -1.54234 2.73429
Spine1  -2.1847 -0.211813 -3.32279
HEad  -21.6701 17.7317 -1.93505
LeftShoulder1  0.0650299 2.93511 -3.37102
LeftArm  -55.297 -0.967581 -14.8206
LeftForeArm  -91.866 -14.3213 4.99307
LeftHand  0.203304 0.158557 -4.56971
RightShoulder  1.94036 3.73715 20.4666
RightArm  30.4588 -26.1631 52.0215
RightForeArm  32.7468 13.0888 12.5247
RightHand  -0.0127626 -9.06678 -1.12721
LeftUpLeg  -16.8785 -7.09327 27.7833
LeftLeg  37.216 0.043519 0.403752
LeftFoot  9.18116 0.780138 -4.57508
LeftToes  7.09373e-011 9.9627e-011 8.96859e-012
351
root  16.2752 37.4851 -3.49755 -179.175 -81.718 175.782
RightUpLeg  -4.53128 -2.02805 -14.0087
RightLeg  32.4647 -11.1043 -7.77799
RightFoot  -15.6935 0.469275 15.1154
RightToes  1.16414e-010 0 -3.6325e-017
Spine  18.0727 -1.46519 4.3194
Spine1  -2.87029 0.0173432 -3.12235
HEad  -17.1816 17.4361 -1.77555
LeftShoulder1  0.0667547 2.96181 -4.39668
LeftArm  -55.2738 1.8809 -15.5897
LeftForeArm  -90.7644 -15.6075 3.90368
LeftHand  0.143243 0.982104 -3.93693
RightShoulder  1.92876 3.64533 20.6627
RightArm  30.8346 -27.168 49.2064
RightForeArm  25.2051 15.8382 10.2988
RightHand  0.00487262 -7.91346 -2.08884
LeftUpLeg  -11.0471 -7.878 26.9407
LeftLeg  31.479 -2.79104 -1.54863
LeftFoot  7.18123 2.45405 -15.4993
LeftToes  7.09373e-011 9.9627e-011 8.96859e-012
352
root  15.7511 37.4451 -1.62677 -178.567 -80.7585 174.984
RightUpLeg  -2.37514 -1.80155 -17.7205
RightLeg  27.8862 -9.71521 -5.76222
RightFoot  -13.4108 0.217868 17.3387
RightToes  1.16414e-010 0 -3.6325e-017
Spine  17.1998 -1.3645 4.79951
Spine1  -3.44688 0.0330904 -3.37246
HEad  -13.5105 16.9771 -1.70892
LeftShoulder1  0.0340484 3.23934 -5.01596
LeftArm  -55.1577 4.68326 -16.3373
LeftForeArm  -89.2614 -16.8961 2.56188
LeftHand  0.059927 2.01479 -2.5115
RightShoulder  1.89489 3.50792 20.7133
RightArm  31.2809 -28.2661 46.2768
RightForeArm  16.5566 20.4894 6.42485
RightHand  -0.0033389 -6.89236 -2.34826
LeftUpLeg  -5.52549 -5.78423 24.852
LeftLeg  26.8176 -2.47449 -1.0274
LeftFoot  1.25553 3.118 -27.9837
LeftToes  7.09373e-011 9.9627e-011 8.96859e-012
353
root  15.3283 37.396 0.174039 -172.749 -80.2078 168.157
RightUpLeg  0.215837 0.710558 -21.6358
RightLeg  23.8639 -10.6082 -5.27726
RightFoot  -9.83841 -0.302134 18.2827
RightToes  1.16414e-010 0 -3.6325e-017
Spine  17.2089 -0.98831 2.78602
Spine1  -3.03029 -0.257173 -2.49955
HEad  -11.9983 16.3025 -2.28219
LeftShoulder1  0.00263015 3.48449 -5.58032
LeftArm  -54.4871 7.08452 -17.2028
LeftForeArm  -86.9838 -17.7866 1.32882
LeftHand  -0.0202617 2.21693 0.202866
RightShoulder  1.75438 3.04242 20.4732
RightArm  22.8246 -28.8414 43.484
RightForeArm  17.0394 26.6007 4.51828
RightHand  -0.0226997 -6.25275 -1.38434
LeftUpLeg  -1.30784 -1.98951 21.2661
LeftLeg  24.1278 -2.48791 -0.877844
LeftFoot  -6.82517 1.38636 -31.7407
LeftToes  7.09373e-011 9.9627e-011 8.96859e-012
354
root  15.021 37.4452 1.88597 -161.778 -80.2801 156.474
RightUpLeg  2.0981 4.34717 -25.1867
RightLeg  20.9402 -16.2279 -6.91968
RightFoot  -4.87729 -0.828852 14.4769
RightToes  1.16414e-010 0 -3.6325e-017
Spine  16.8445 -0.598749 -0.928646
Spine1  -1.5243 -0.955001 -0.156767
HEad  -12.5136 15.5447 -3.2467
LeftShoulder1  0.022011 3.34798 -6.25881
LeftArm  -51.5923 9.09084 -18.1497
LeftForeArm  -84.9565 -18.0832 0.318232
LeftHand  -0.101943 2.36672 3.62105
RightShoulder  1.52423 2.2863 19.9703
RightArm  8.57721 -29.2176 41.7168
RightForeArm  23.2038 35.0526 6.53294
RightHand  -0.0142201 -6.45486 -1.94991
LeftUpLeg  0.256153 0.542002 16.457
LeftLeg  23.3175 -3.24742 -1.19623
LeftFoot  -12.3492 -0.167915 -26.6194
LeftToes  7.09373e-011 9.9627e-011 8.96859e-012
355
root  14.8017 37.6087 3.42831 -152.131 -80.4719 147.635
RightUpLeg  1.78065 6.04944 -27.0481
RightLeg  20.0563 -22.9642 -9.1921
RightFoot  -1.38594 -0.631788 6.906
RightToes  1.16414e-010 0 -3.6325e-017
Spine  15.4165 -0.522226 -3.38846
Spine1  -0.163172 -1.57095 1.64307
HEad  -13.4943 14.8326 -4.01098
LeftShoulder1  0.101758 2.78843 -6.55775
LeftArm  -46.6846 11.429 -19.6798
LeftForeArm  -81.4328 -18.5718 -1.37708
LeftHand  -0.116606 3.31047 5.65613
RightShoulder  1.31384 1.60019 19.356
RightArm  -0.363619 -30.024 41.2315
RightForeArm  25.7071 44.752 9.33648
RightHand  0.0304604 -6.56454 -6.5147
LeftUpLeg  -0.64093 0.778668 12.0532
LeftLeg  23.2378 -2.23686 -0.716297
LeftFoot  -14.3369 -0.503225 -21.8776
LeftToes  7.09373e-011 9.9627e-011 8.96859e-012
356
root  14.6432 37.9535 4.64878 -151.922 -80.1242 149.349
RightUpLeg  -1.22214 4.10729 -26.1287
RightLeg  22.1638 -22.9045 -10.0373
RightFoot  -2.01282 -0.23487 2.73923
RightToes  1.16414e-010 0 -3.6325e-017
Spine  13.7152 -0.384628 -3.27152
Spine1  0.0724894 -1.37006 1.26771
HEad  -13.9688 14.337 -4.50273
LeftShoulder1  0.195065 2.13974 -6.58765
LeftArm  -42.1644 14.6884 -22.3237
LeftForeArm  -72.3927 -20.4433 -4.36777
LeftHand  -0.0939164 3.40825 4.77657
RightShoulder  1.21393 1.31386 18.7748
RightArm  -3.75654 -30.9433 40.6959
RightForeArm  28.7992 52.9147 12.5243
RightHand  0.0444986 -5.96787 -12.3446
LeftUpLeg  -2.02001 1.04307 9.81281
LeftLeg  22.3578 -0.507056 0.13477
LeftFoot  -14.5302 -0.521908 -21.6718
LeftToes  7.09373e-011 9.9627e-011 8.96859e-012
357
root  14.5436 38.4913 5.52363 -158.753 -79.0833 157.754
RightUpLeg  -5.23241 1.27201 -22.3244
RightLeg  27.0871 -15.0389 -8.33071
RightFoot  -5.01729 -0.356989 6.01601
RightToes  1.16414e-010 0 -3.6325e-017
Spine  12.8764 0.126679 -2.10675
Spine1  -0.286313 -0.521718 -0.233716
HEad  -14.3515 14.2635 -4.75235
LeftShoulder1  0.260444 1.76176 -7.32956
LeftArm  -37.4657 18.4383 -25.9891
LeftForeArm  -60.3579 -23.8907 -7.0562
LeftHand  -0.0811087 1.33954 2.26859
RightShoulder  1.22253 1.44268 18.2465
RightArm  -3.53357 -31.3946 39.4904
RightForeArm  33.3895 58.487 15.3715
RightHand  -0.0352721 -5.22834 -16.6529
LeftUpLeg  -2.69505 3.28917 9.41302
LeftLeg  20.9942 -0.84299 0.206632
LeftFoot  -12.7571 -0.205117 -22.0359
LeftToes  7.09373e-011 9.9627e-011 8.96859e-012
358
root  14.5032 39.0969 6.16756 -163.074 -78.2611 162.696
RightUpLeg  -8.15908 0.244501 -17.0796
RightLeg  33.5466 -6.89651 -5.16807
RightFoot  -6.76416 -0.527544 11.8352
RightToes  1.16414e-010 0 -3.6325e-017
Spine  12.9635 0.54312 -1.78341
Spine1  -0.3614 0.0658835 -1.27621
HEad  -14.9004 14.4701 -4.26259
LeftShoulder1  0.294261 1.69855 -8.85248
LeftArm  -31.1452 21.8339 -30.586
LeftForeArm  -52.6293 -27.9856 -8.09771
LeftHand  0.0417747 -0.698255 -0.780816
RightShoulder  1.25448 1.6846 17.6551
RightArm  -2.14206 -31.5065 38.4101
RightForeArm  36.6802 61.6948 17.4708
RightHand  -0.286481 -3.87029 -20.8925
LeftUpLeg  -3.31379 6.00774 9.33295
LeftLeg  20.5722 -3.13613 -0.560188
LeftFoot  -8.34 0.606462 -21.0322
LeftToes  7.09373e-011 9.9627e-011 8.96859e-012
359
root  14.4787 39.6304 6.75897 -162.729 -78.9481 162.719
RightUpLeg  -9.71942 -0.775847 -11.4934
RightLeg  39.8511 -3.15938 -3.13029
RightFoot  -6.60388 -0.674973 15.1142
RightToes  1.16414e-010 0 -3.6325e-017
Spine  13.3455 0.273335 -1.49123
Spine1  -0.604692 0.0406928 -2.06637
HEad  -14.831 14.2182 -2.77591
LeftShoulder1  0.295401 1.80263 -10.0264
LeftArm  -25.2865 24.1817 -36.3743
LeftForeArm  -51.664 -30.5307 -8.71432
LeftHand  0.220771 -0.227216 -4.87791
RightShoulder  1.25206 1.80367 17.0117
RightArm  -0.48726 -32.3964 37.8715
RightForeArm  36.7351 62.8608 18.5133
RightHand  -0.74038 -2.1467 -26.1802
LeftUpLeg  -5.16038 6.03957 8.83264
LeftLeg  21.9135 -3.55928 -1.13025
LeftFoot  -3.80314 1.46922 -21.6334
LeftToes  7.09373e-011 9.9627e-011 8.96859e-012
360
root  14.4203 39.8826 7.35154 -156.821 -80.8394 157.359
RightUpLeg  -10.513 -3.30116 -6.36136
RightLeg  44.7757 -1.67595 -2.09289
RightFoot  -4.43922 -1.04569 16.6597
RightToes  1.16414e-010 0 -3.6325e-017
Spine  13.6776 -0.355015 -0.573717
Spine1  -1.60714 -0.107996 -3.72559
HEad  -13.8017 12.6881 -1.0145
LeftShoulder1  0.279294 1.95618 -10.8244
LeftArm  -21.0351 24.762 -43.0657
LeftForeArm  -58.3113 -29.8915 -8.6567
LeftHand  0.0989195 3.55483 -6.54304
RightShoulder  1.26907 1.93097 16.7471
RightArm  1.19369 -35.1349 36.9164
RightForeArm  35.0719 62.4446 18.3262
RightHand  -1.29839 -0.693752 -31.5481
LeftUpLeg  -8.72764 4.74555 7.50096
LeftLeg  25.703 -2.12156 -0.756873
LeftFoot  -2.59472 1.8852 -24.2001
LeftToes  7.09373e-011 9.9627e-011 8.96859e-012
